STARTFONT 2.1
FONT -URW-ITC Avant Garde-Medium-O-Normal-Sans-12-120-72-72-P-68-ISO8859-1
SIZE 12 72 72
FONTBOUNDINGBOX 19 15 -3 -2

STARTPROPERTIES 22
FONTNAME_REGISTRY "-"
FOUNDRY "URW"
FAMILY_NAME "ITC Avant Garde"
WEIGHT_NAME "Medium"
SLANT "O"
SETWIDTH_NAME "Normal"
ADD_STYLE_NAME "Sans"
PIXEL_SIZE 12
POINT_SIZE 120
RESOLUTION_X 72
RESOLUTION_Y 72
SPACING "P"
CHARSET_REGISTRY "ISO8859"
CHARSET_ENCODING "1"
FULL_NAME "AvantGarde-BookOblique"
AVERAGE_WIDTH 68
WEIGHT 10
X_HEIGHT 6
QUAD_WIDTH 8
DEFAULT_CHAR 32
FONT_DESCENT 2
FONT_ASCENT 13
ENDPROPERTIES

CHARS 190

STARTCHAR space
ENCODING 32
SWIDTH 277 0
DWIDTH 3 0
BBX 1 1 0 0
BITMAP
00
ENDCHAR

STARTCHAR exclam
ENCODING 33
SWIDTH 295 0
DWIDTH 4 0
BBX 3 9 1 0
BITMAP
60
40
40
40
40
40
C0
00
80
ENDCHAR

STARTCHAR quotedbl
ENCODING 34
SWIDTH 309 0
DWIDTH 4 0
BBX 2 3 2 6
BITMAP
C0
C0
C0
ENDCHAR

STARTCHAR numbersign
ENCODING 35
SWIDTH 554 0
DWIDTH 9 0
BBX 9 9 1 0
BITMAP
0900
1200
1200
7F80
2400
FF00
2400
4800
4800
ENDCHAR

STARTCHAR dollar
ENCODING 36
SWIDTH 554 0
DWIDTH 7 0
BBX 6 10 1 0
BITMAP
10
38
44
40
30
08
08
88
70
40
ENDCHAR

STARTCHAR percent
ENCODING 37
SWIDTH 775 0
DWIDTH 9 0
BBX 7 9 2 0
BITMAP
64
94
98
68
10
2C
52
52
8C
ENDCHAR

STARTCHAR ampersand
ENCODING 38
SWIDTH 757 0
DWIDTH 9 0
BBX 8 9 1 0
BITMAP
18
24
24
39
52
8A
84
8A
71
ENDCHAR

STARTCHAR quoteright
ENCODING 39
SWIDTH 351 0
DWIDTH 4 0
BBX 3 2 2 7
BITMAP
60
80
ENDCHAR

STARTCHAR parenleft
ENCODING 40
SWIDTH 369 0
DWIDTH 4 0
BBX 4 10 1 -1
BITMAP
10
20
40
80
80
80
80
80
40
20
ENDCHAR

STARTCHAR parenright
ENCODING 41
SWIDTH 369 0
DWIDTH 4 0
BBX 4 10 0 -1
BITMAP
20
10
10
10
10
10
10
20
40
80
ENDCHAR

STARTCHAR asterisk
ENCODING 42
SWIDTH 425 0
DWIDTH 5 0
BBX 4 4 2 5
BITMAP
60
F0
60
90
ENDCHAR

STARTCHAR plus
ENCODING 43
SWIDTH 606 0
DWIDTH 7 0
BBX 6 5 1 1
BITMAP
10
10
FC
20
20
ENDCHAR

STARTCHAR comma
ENCODING 44
SWIDTH 277 0
DWIDTH 3 0
BBX 3 2 1 0
BITMAP
60
80
ENDCHAR

STARTCHAR minus
ENCODING 45
SWIDTH 606 0
DWIDTH 7 0
BBX 6 1 1 3
BITMAP
FC
ENDCHAR

STARTCHAR period
ENCODING 46
SWIDTH 277 0
DWIDTH 3 0
BBX 1 2 1 0
BITMAP
80
80
ENDCHAR

STARTCHAR slash
ENCODING 47
SWIDTH 437 0
DWIDTH 5 0
BBX 6 10 0 -1
BITMAP
04
08
08
10
10
20
20
40
40
80
ENDCHAR

STARTCHAR zero
ENCODING 48
SWIDTH 554 0
DWIDTH 7 0
BBX 7 9 1 0
BITMAP
3C
42
42
82
84
84
84
88
70
ENDCHAR

STARTCHAR one
ENCODING 49
SWIDTH 554 0
DWIDTH 7 0
BBX 2 9 3 0
BITMAP
40
C0
40
40
40
40
80
80
80
ENDCHAR

STARTCHAR two
ENCODING 50
SWIDTH 554 0
DWIDTH 7 0
BBX 7 9 0 0
BITMAP
1C
22
42
02
04
18
20
40
FC
ENDCHAR

STARTCHAR three
ENCODING 51
SWIDTH 554 0
DWIDTH 7 0
BBX 6 9 1 0
BITMAP
38
44
04
08
18
04
84
88
70
ENDCHAR

STARTCHAR four
ENCODING 52
SWIDTH 554 0
DWIDTH 7 0
BBX 7 9 0 0
BITMAP
02
04
0C
14
24
44
84
FC
08
ENDCHAR

STARTCHAR five
ENCODING 53
SWIDTH 554 0
DWIDTH 7 0
BBX 6 9 1 0
BITMAP
3C
20
40
78
44
04
04
88
70
ENDCHAR

STARTCHAR six
ENCODING 54
SWIDTH 554 0
DWIDTH 7 0
BBX 6 9 1 0
BITMAP
0C
10
20
78
44
84
84
88
70
ENDCHAR

STARTCHAR seven
ENCODING 55
SWIDTH 554 0
DWIDTH 7 0
BBX 6 9 1 0
BITMAP
7C
04
08
10
10
20
40
40
80
ENDCHAR

STARTCHAR eight
ENCODING 56
SWIDTH 554 0
DWIDTH 7 0
BBX 6 9 1 0
BITMAP
18
24
44
44
38
44
84
88
70
ENDCHAR

STARTCHAR nine
ENCODING 57
SWIDTH 554 0
DWIDTH 7 0
BBX 6 9 1 0
BITMAP
38
44
84
84
88
68
10
20
40
ENDCHAR

STARTCHAR colon
ENCODING 58
SWIDTH 277 0
DWIDTH 3 0
BBX 2 7 1 0
BITMAP
40
40
00
00
00
80
80
ENDCHAR

STARTCHAR semicolon
ENCODING 59
SWIDTH 277 0
DWIDTH 3 0
BBX 3 7 0 0
BITMAP
20
20
00
00
00
60
80
ENDCHAR

STARTCHAR less
ENCODING 60
SWIDTH 606 0
DWIDTH 7 0
BBX 7 6 1 0
BITMAP
06
18
60
C0
30
0C
ENDCHAR

STARTCHAR equal
ENCODING 61
SWIDTH 606 0
DWIDTH 7 0
BBX 7 3 1 2
BITMAP
FE
00
FC
ENDCHAR

STARTCHAR greater
ENCODING 62
SWIDTH 606 0
DWIDTH 7 0
BBX 7 6 1 0
BITMAP
40
38
06
0C
30
C0
ENDCHAR

STARTCHAR question
ENCODING 63
SWIDTH 591 0
DWIDTH 7 0
BBX 6 9 2 0
BITMAP
38
44
84
08
10
20
20
00
40
ENDCHAR

STARTCHAR at
ENCODING 64
SWIDTH 867 0
DWIDTH 10 0
BBX 9 9 2 0
BITMAP
1E00
2100
4C80
9280
A280
A480
9B00
4000
3E00
ENDCHAR

STARTCHAR A
ENCODING 65
SWIDTH 740 0
DWIDTH 9 0
BBX 9 9 0 0
BITMAP
0600
0600
0A00
1200
1100
3F00
4100
4100
8080
ENDCHAR

STARTCHAR B
ENCODING 66
SWIDTH 574 0
DWIDTH 7 0
BBX 6 9 1 0
BITMAP
78
44
44
44
F8
84
84
84
F8
ENDCHAR

STARTCHAR C
ENCODING 67
SWIDTH 813 0
DWIDTH 10 0
BBX 9 9 1 0
BITMAP
1F00
2080
4000
8000
8000
8000
8000
4300
3C00
ENDCHAR

STARTCHAR D
ENCODING 68
SWIDTH 744 0
DWIDTH 9 0
BBX 8 9 1 0
BITMAP
3C
42
41
41
41
41
82
84
F8
ENDCHAR

STARTCHAR E
ENCODING 69
SWIDTH 536 0
DWIDTH 6 0
BBX 6 9 1 0
BITMAP
3C
40
40
40
7C
40
80
80
F8
ENDCHAR

STARTCHAR F
ENCODING 70
SWIDTH 485 0
DWIDTH 6 0
BBX 6 9 1 0
BITMAP
3C
40
40
40
78
40
80
80
80
ENDCHAR

STARTCHAR G
ENCODING 71
SWIDTH 872 0
DWIDTH 10 0
BBX 10 9 1 0
BITMAP
1F00
2080
4000
8000
8000
9FC0
8080
4300
3C00
ENDCHAR

STARTCHAR H
ENCODING 72
SWIDTH 683 0
DWIDTH 8 0
BBX 8 9 1 0
BITMAP
61
41
41
42
7E
42
82
82
86
ENDCHAR

STARTCHAR I
ENCODING 73
SWIDTH 226 0
DWIDTH 3 0
BBX 3 9 1 0
BITMAP
60
40
40
40
40
40
80
80
80
ENDCHAR

STARTCHAR J
ENCODING 74
SWIDTH 482 0
DWIDTH 6 0
BBX 6 9 0 0
BITMAP
04
04
04
08
08
08
08
90
F0
ENDCHAR

STARTCHAR K
ENCODING 75
SWIDTH 591 0
DWIDTH 7 0
BBX 8 9 1 0
BITMAP
43
44
48
50
60
50
88
88
84
ENDCHAR

STARTCHAR L
ENCODING 76
SWIDTH 462 0
DWIDTH 6 0
BBX 5 9 1 0
BITMAP
60
40
40
40
40
40
80
80
F8
ENDCHAR

STARTCHAR M
ENCODING 77
SWIDTH 919 0
DWIDTH 11 0
BBX 11 9 1 0
BITMAP
2060
20A0
50A0
5140
5140
5240
8A40
8C80
8880
ENDCHAR

STARTCHAR N
ENCODING 78
SWIDTH 740 0
DWIDTH 9 0
BBX 9 9 1 0
BITMAP
2080
5080
5080
4900
4900
4900
8500
8500
8200
ENDCHAR

STARTCHAR O
ENCODING 79
SWIDTH 869 0
DWIDTH 10 0
BBX 9 9 1 0
BITMAP
1E00
2100
4080
8080
8080
8080
8100
4200
3C00
ENDCHAR

STARTCHAR P
ENCODING 80
SWIDTH 592 0
DWIDTH 7 0
BBX 7 9 1 0
BITMAP
7C
42
42
42
44
78
80
80
80
ENDCHAR

STARTCHAR Q
ENCODING 81
SWIDTH 871 0
DWIDTH 10 0
BBX 10 9 1 0
BITMAP
1F00
2080
4040
8040
8040
F880
8480
4300
3D80
ENDCHAR

STARTCHAR R
ENCODING 82
SWIDTH 607 0
DWIDTH 7 0
BBX 7 9 1 0
BITMAP
7C
42
42
42
44
58
90
88
84
ENDCHAR

STARTCHAR S
ENCODING 83
SWIDTH 498 0
DWIDTH 6 0
BBX 6 9 1 0
BITMAP
38
44
40
30
08
04
84
88
70
ENDCHAR

STARTCHAR T
ENCODING 84
SWIDTH 426 0
DWIDTH 5 0
BBX 5 9 2 0
BITMAP
F8
20
20
40
40
40
80
80
80
ENDCHAR

STARTCHAR U
ENCODING 85
SWIDTH 655 0
DWIDTH 8 0
BBX 7 9 1 0
BITMAP
42
42
42
82
84
84
84
88
70
ENDCHAR

STARTCHAR V
ENCODING 86
SWIDTH 702 0
DWIDTH 8 0
BBX 8 9 2 0
BITMAP
81
82
82
44
44
48
50
30
20
ENDCHAR

STARTCHAR W
ENCODING 87
SWIDTH 960 0
DWIDTH 12 0
BBX 11 9 2 0
BITMAP
8420
8C20
8C40
9440
5280
5280
6300
4200
4200
ENDCHAR

STARTCHAR X
ENCODING 88
SWIDTH 609 0
DWIDTH 7 0
BBX 9 9 0 0
BITMAP
2080
2100
1200
1400
0800
1800
2400
4400
8200
ENDCHAR

STARTCHAR Y
ENCODING 89
SWIDTH 592 0
DWIDTH 7 0
BBX 7 10 2 -1
BITMAP
82
84
48
48
50
20
20
20
40
40
ENDCHAR

STARTCHAR Z
ENCODING 90
SWIDTH 480 0
DWIDTH 6 0
BBX 7 9 0 0
BITMAP
3E
02
04
08
10
20
40
80
FC
ENDCHAR

STARTCHAR bracketleft
ENCODING 91
SWIDTH 351 0
DWIDTH 4 0
BBX 4 10 2 -1
BITMAP
10
60
40
40
80
80
80
80
80
40
ENDCHAR

STARTCHAR backslash
ENCODING 92
SWIDTH 605 0
DWIDTH 7 0
BBX 3 9 3 0
BITMAP
80
80
40
40
40
40
40
20
20
ENDCHAR

STARTCHAR bracketright
ENCODING 93
SWIDTH 351 0
DWIDTH 4 0
BBX 4 10 0 -1
BITMAP
20
10
10
10
10
20
20
20
40
80
ENDCHAR

STARTCHAR asciicircum
ENCODING 94
SWIDTH 606 0
DWIDTH 8 0
BBX 7 7 1 2
BITMAP
08
14
14
24
64
46
82
ENDCHAR

STARTCHAR underscore
ENCODING 95
SWIDTH 500 0
DWIDTH 6 0
BBX 6 1 0 -1
BITMAP
FC
ENDCHAR

STARTCHAR quoteleft
ENCODING 96
SWIDTH 351 0
DWIDTH 4 0
BBX 2 2 3 7
BITMAP
80
C0
ENDCHAR

STARTCHAR a
ENCODING 97
SWIDTH 683 0
DWIDTH 8 0
BBX 8 6 1 0
BITMAP
3D
42
82
82
86
7A
ENDCHAR

STARTCHAR b
ENCODING 98
SWIDTH 682 0
DWIDTH 8 0
BBX 8 9 1 0
BITMAP
60
40
40
5E
62
41
82
C6
B8
ENDCHAR

STARTCHAR c
ENCODING 99
SWIDTH 647 0
DWIDTH 8 0
BBX 7 6 1 0
BITMAP
3C
42
80
80
86
78
ENDCHAR

STARTCHAR d
ENCODING 100
SWIDTH 685 0
DWIDTH 8 0
BBX 8 9 1 0
BITMAP
01
01
01
3E
42
82
82
86
7A
ENDCHAR

STARTCHAR e
ENCODING 101
SWIDTH 650 0
DWIDTH 8 0
BBX 7 6 1 0
BITMAP
3C
42
FE
80
86
78
ENDCHAR

STARTCHAR f
ENCODING 102
SWIDTH 314 0
DWIDTH 4 0
BBX 4 9 1 0
BITMAP
30
20
40
F0
40
40
80
80
80
ENDCHAR

STARTCHAR g
ENCODING 103
SWIDTH 673 0
DWIDTH 8 0
BBX 8 8 1 -2
BITMAP
3D
42
82
82
46
3A
82
7C
ENDCHAR

STARTCHAR h
ENCODING 104
SWIDTH 610 0
DWIDTH 7 0
BBX 7 9 1 0
BITMAP
20
20
40
7C
42
42
84
84
84
ENDCHAR

STARTCHAR i
ENCODING 105
SWIDTH 200 0
DWIDTH 2 0
BBX 3 9 1 0
BITMAP
60
40
00
40
40
40
80
80
80
ENDCHAR

STARTCHAR j
ENCODING 106
SWIDTH 203 0
DWIDTH 2 0
BBX 4 11 0 -2
BITMAP
10
10
00
10
10
20
20
20
20
40
C0
ENDCHAR

STARTCHAR k
ENCODING 107
SWIDTH 502 0
DWIDTH 6 0
BBX 6 9 1 0
BITMAP
60
40
40
4C
50
60
90
90
88
ENDCHAR

STARTCHAR l
ENCODING 108
SWIDTH 200 0
DWIDTH 2 0
BBX 3 9 1 0
BITMAP
60
40
40
40
40
40
80
80
80
ENDCHAR

STARTCHAR m
ENCODING 109
SWIDTH 938 0
DWIDTH 11 0
BBX 10 6 1 0
BITMAP
5DC0
6640
4440
8440
8880
8880
ENDCHAR

STARTCHAR n
ENCODING 110
SWIDTH 610 0
DWIDTH 7 0
BBX 7 6 1 0
BITMAP
5C
62
42
84
84
84
ENDCHAR

STARTCHAR o
ENCODING 111
SWIDTH 655 0
DWIDTH 8 0
BBX 7 6 1 0
BITMAP
3C
42
82
82
84
78
ENDCHAR

STARTCHAR p
ENCODING 112
SWIDTH 682 0
DWIDTH 8 0
BBX 8 8 0 -2
BITMAP
3E
21
41
41
42
7C
80
80
ENDCHAR

STARTCHAR q
ENCODING 113
SWIDTH 682 0
DWIDTH 8 0
BBX 8 8 1 -2
BITMAP
3D
42
82
82
84
7C
04
04
ENDCHAR

STARTCHAR r
ENCODING 114
SWIDTH 301 0
DWIDTH 4 0
BBX 4 6 1 0
BITMAP
50
60
40
80
80
80
ENDCHAR

STARTCHAR s
ENCODING 115
SWIDTH 388 0
DWIDTH 5 0
BBX 5 6 0 0
BITMAP
30
48
20
10
88
70
ENDCHAR

STARTCHAR t
ENCODING 116
SWIDTH 339 0
DWIDTH 4 0
BBX 4 9 1 0
BITMAP
20
20
20
F0
40
40
40
40
80
ENDCHAR

STARTCHAR u
ENCODING 117
SWIDTH 608 0
DWIDTH 7 0
BBX 7 6 1 0
BITMAP
42
84
84
84
8C
74
ENDCHAR

STARTCHAR v
ENCODING 118
SWIDTH 554 0
DWIDTH 7 0
BBX 7 6 1 0
BITMAP
82
84
48
50
30
20
ENDCHAR

STARTCHAR w
ENCODING 119
SWIDTH 831 0
DWIDTH 10 0
BBX 10 6 1 0
BITMAP
8840
8880
5500
5500
6600
6600
ENDCHAR

STARTCHAR x
ENCODING 120
SWIDTH 480 0
DWIDTH 6 0
BBX 7 6 0 0
BITMAP
42
24
18
30
48
84
ENDCHAR

STARTCHAR y
ENCODING 121
SWIDTH 536 0
DWIDTH 6 0
BBX 6 8 1 -2
BITMAP
84
88
50
50
20
20
40
80
ENDCHAR

STARTCHAR z
ENCODING 122
SWIDTH 425 0
DWIDTH 5 0
BBX 6 6 0 0
BITMAP
7C
08
10
20
40
F8
ENDCHAR

STARTCHAR braceleft
ENCODING 123
SWIDTH 351 0
DWIDTH 4 0
BBX 4 10 1 -1
BITMAP
30
20
40
40
C0
40
40
80
80
C0
ENDCHAR

STARTCHAR bar
ENCODING 124
SWIDTH 672 0
DWIDTH 8 0
BBX 2 9 4 0
BITMAP
40
40
40
40
40
40
80
80
80
ENDCHAR

STARTCHAR braceright
ENCODING 125
SWIDTH 351 0
DWIDTH 4 0
BBX 4 10 0 -1
BITMAP
20
10
10
20
20
30
20
40
40
C0
ENDCHAR

STARTCHAR asciitilde
ENCODING 126
SWIDTH 606 0
DWIDTH 7 0
BBX 6 2 1 2
BITMAP
64
98
ENDCHAR

STARTCHAR exclamdown
ENCODING 161
SWIDTH 295 0
DWIDTH 4 0
BBX 3 8 1 -2
BITMAP
60
00
40
40
40
80
80
80
ENDCHAR

STARTCHAR cent
ENCODING 162
SWIDTH 554 0
DWIDTH 7 0
BBX 6 7 1 2
BITMAP
10
78
84
80
88
70
20
ENDCHAR

STARTCHAR sterling
ENCODING 163
SWIDTH 554 0
DWIDTH 7 0
BBX 7 9 1 0
BITMAP
1C
22
40
40
FC
20
22
42
FC
ENDCHAR

STARTCHAR currency
ENCODING 164
SWIDTH 554 0
DWIDTH 7 0
BBX 7 6 1 0
BITMAP
7E
44
84
84
48
FC
ENDCHAR

STARTCHAR yen
ENCODING 165
SWIDTH 554 0
DWIDTH 7 0
BBX 8 9 1 0
BITMAP
81
42
24
FC
10
FC
20
20
20
ENDCHAR

STARTCHAR brokenbar
ENCODING 166
SWIDTH 672 0
DWIDTH 8 0
BBX 2 9 4 0
BITMAP
40
40
40
00
00
80
80
80
80
ENDCHAR

STARTCHAR section
ENCODING 167
SWIDTH 615 0
DWIDTH 7 0
BBX 6 10 1 -1
BITMAP
38
44
20
50
88
64
18
08
88
70
ENDCHAR

STARTCHAR dieresis
ENCODING 168
SWIDTH 369 0
DWIDTH 4 0
BBX 3 2 2 7
BITMAP
A0
A0
ENDCHAR

STARTCHAR copyright
ENCODING 169
SWIDTH 747 0
DWIDTH 9 0
BBX 10 9 0 0
BITMAP
0F00
3080
4C40
9240
A040
A040
9C80
4300
3C00
ENDCHAR

STARTCHAR ordfeminine
ENCODING 170
SWIDTH 369 0
DWIDTH 4 0
BBX 5 6 1 3
BITMAP
38
50
50
70
00
F0
ENDCHAR

STARTCHAR guillemotleft
ENCODING 171
SWIDTH 425 0
DWIDTH 5 0
BBX 4 6 1 1
BITMAP
50
50
A0
A0
A0
50
ENDCHAR

STARTCHAR logicalnot
ENCODING 172
SWIDTH 606 0
DWIDTH 7 0
BBX 6 3 1 2
BITMAP
FC
04
04
ENDCHAR

STARTCHAR hyphen
ENCODING 173
SWIDTH 332 0
DWIDTH 4 0
BBX 3 1 1 3
BITMAP
E0
ENDCHAR

STARTCHAR registered
ENCODING 174
SWIDTH 747 0
DWIDTH 9 0
BBX 10 9 0 0
BITMAP
0F00
3080
4E40
8A40
8A40
9440
9280
4300
3C00
ENDCHAR

STARTCHAR macron
ENCODING 175
SWIDTH 485 0
DWIDTH 6 0
BBX 4 1 2 7
BITMAP
F0
ENDCHAR

STARTCHAR degree
ENCODING 176
SWIDTH 400 0
DWIDTH 7 0
BBX 4 4 3 5
BITMAP
60
90
90
60
ENDCHAR

STARTCHAR plusminus
ENCODING 177
SWIDTH 606 0
DWIDTH 7 0
BBX 7 7 1 0
BITMAP
08
08
7E
10
10
10
FE
ENDCHAR

STARTCHAR twosuperior
ENCODING 178
SWIDTH 332 0
DWIDTH 4 0
BBX 4 5 -2 4
BITMAP
20
50
10
60
F0
ENDCHAR

STARTCHAR threesuperior
ENCODING 179
SWIDTH 332 0
DWIDTH 4 0
BBX 3 5 -2 4
BITMAP
60
20
60
20
C0
ENDCHAR

STARTCHAR acute
ENCODING 180
SWIDTH 375 0
DWIDTH 5 0
BBX 3 2 2 7
BITMAP
60
C0
ENDCHAR

STARTCHAR mu
ENCODING 181
SWIDTH 608 0
DWIDTH 7 0
BBX 7 8 0 -2
BITMAP
22
22
42
44
44
7C
80
80
ENDCHAR

STARTCHAR paragraph
ENCODING 182
SWIDTH 564 0
DWIDTH 7 0
BBX 6 10 2 -1
BITMAP
7C
E4
E8
E8
68
28
48
50
50
50
ENDCHAR

STARTCHAR periodcentered
ENCODING 183
SWIDTH 277 0
DWIDTH 6 0
BBX 1 2 3 4
BITMAP
80
80
ENDCHAR

STARTCHAR cedilla
ENCODING 184
SWIDTH 324 0
DWIDTH 4 0
BBX 2 2 1 -2
BITMAP
40
C0
ENDCHAR

STARTCHAR onesuperior
ENCODING 185
SWIDTH 332 0
DWIDTH 4 0
BBX 1 5 -3 4
BITMAP
80
80
80
80
80
ENDCHAR

STARTCHAR ordmasculine
ENCODING 186
SWIDTH 369 0
DWIDTH 4 0
BBX 4 6 1 3
BITMAP
70
50
50
60
00
F0
ENDCHAR

STARTCHAR guillemotright
ENCODING 187
SWIDTH 425 0
DWIDTH 5 0
BBX 4 6 1 1
BITMAP
A0
50
50
50
A0
A0
ENDCHAR

STARTCHAR onequarter
ENCODING 188
SWIDTH 831 0
DWIDTH 10 0
BBX 8 9 4 0
BITMAP
82
84
88
90
91
23
45
4F
82
ENDCHAR

STARTCHAR onehalf
ENCODING 189
SWIDTH 831 0
DWIDTH 10 0
BBX 8 9 4 0
BITMAP
84
84
88
90
92
25
41
46
8F
ENDCHAR

STARTCHAR threequarters
ENCODING 190
SWIDTH 831 0
DWIDTH 10 0
BBX 10 9 6 0
BITMAP
6080
2100
6200
2400
C440
08C0
1140
13C0
2080
ENDCHAR

STARTCHAR questiondown
ENCODING 191
SWIDTH 591 0
DWIDTH 7 0
BBX 6 8 1 -2
BITMAP
10
00
10
20
40
84
88
70
ENDCHAR

STARTCHAR Agrave
ENCODING 192
SWIDTH 740 0
DWIDTH 9 0
BBX 9 12 0 0
BITMAP
0400
0300
0000
0600
0600
0A00
1200
1100
3F00
4100
4100
8080
ENDCHAR

STARTCHAR Aacute
ENCODING 193
SWIDTH 740 0
DWIDTH 9 0
BBX 9 12 0 0
BITMAP
0300
0400
0000
0600
0600
0A00
1200
1100
3F00
4100
4100
8080
ENDCHAR

STARTCHAR Acircumflex
ENCODING 194
SWIDTH 740 0
DWIDTH 9 0
BBX 9 12 0 0
BITMAP
0600
0900
0000
0600
0600
0A00
1200
1100
3F00
4100
4100
8080
ENDCHAR

STARTCHAR Atilde
ENCODING 195
SWIDTH 740 0
DWIDTH 9 0
BBX 9 11 0 0
BITMAP
0E00
0000
0600
0600
0A00
1200
1100
3F00
4100
4100
8080
ENDCHAR

STARTCHAR Adieresis
ENCODING 196
SWIDTH 740 0
DWIDTH 9 0
BBX 9 12 0 0
BITMAP
0500
0500
0000
0600
0600
0A00
1200
1100
3F00
4100
4100
8080
ENDCHAR

STARTCHAR Aring
ENCODING 197
SWIDTH 740 0
DWIDTH 9 0
BBX 9 13 0 0
BITMAP
0300
0500
0600
0000
0600
0600
0A00
1200
1100
3F00
4100
4100
8080
ENDCHAR

STARTCHAR AE
ENCODING 198
SWIDTH 992 0
DWIDTH 12 0
BBX 13 9 0 0
BITMAP
00F8
0180
0380
0500
09F0
1F00
2100
4100
83E0
ENDCHAR

STARTCHAR Ccedilla
ENCODING 199
SWIDTH 813 0
DWIDTH 10 0
BBX 9 11 1 -2
BITMAP
1F00
2080
4000
8000
8000
8000
8000
4300
3C00
1000
3000
ENDCHAR

STARTCHAR Egrave
ENCODING 200
SWIDTH 536 0
DWIDTH 6 0
BBX 6 12 1 0
BITMAP
10
0C
00
3C
40
40
40
7C
40
80
80
F8
ENDCHAR

STARTCHAR Eacute
ENCODING 201
SWIDTH 536 0
DWIDTH 6 0
BBX 6 12 1 0
BITMAP
0C
10
00
3C
40
40
40
7C
40
80
80
F8
ENDCHAR

STARTCHAR Ecircumflex
ENCODING 202
SWIDTH 536 0
DWIDTH 6 0
BBX 6 12 1 0
BITMAP
18
24
00
3C
40
40
40
7C
40
80
80
F8
ENDCHAR

STARTCHAR Edieresis
ENCODING 203
SWIDTH 536 0
DWIDTH 6 0
BBX 6 12 1 0
BITMAP
14
14
00
3C
40
40
40
7C
40
80
80
F8
ENDCHAR

STARTCHAR Igrave
ENCODING 204
SWIDTH 226 0
DWIDTH 3 0
BBX 4 12 1 0
BITMAP
40
30
00
60
40
40
40
40
40
80
80
80
ENDCHAR

STARTCHAR Iacute
ENCODING 205
SWIDTH 226 0
DWIDTH 3 0
BBX 4 12 1 0
BITMAP
30
60
00
60
40
40
40
40
40
80
80
80
ENDCHAR

STARTCHAR Icircumflex
ENCODING 206
SWIDTH 226 0
DWIDTH 3 0
BBX 4 12 1 0
BITMAP
60
D0
00
60
40
40
40
40
40
80
80
80
ENDCHAR

STARTCHAR Idieresis
ENCODING 207
SWIDTH 226 0
DWIDTH 3 0
BBX 4 12 1 0
BITMAP
50
50
00
60
40
40
40
40
40
80
80
80
ENDCHAR

STARTCHAR Eth
ENCODING 208
SWIDTH 790 0
DWIDTH 9 0
BBX 8 9 1 0
BITMAP
3C
42
41
41
F1
41
82
84
F8
ENDCHAR

STARTCHAR Ntilde
ENCODING 209
SWIDTH 740 0
DWIDTH 9 0
BBX 9 11 1 0
BITMAP
0E00
0000
2080
5080
5080
4900
4900
4900
8500
8500
8200
ENDCHAR

STARTCHAR Ograve
ENCODING 210
SWIDTH 869 0
DWIDTH 10 0
BBX 9 12 1 0
BITMAP
0800
0600
0000
1E00
2100
4080
8080
8080
8080
8100
4200
3C00
ENDCHAR

STARTCHAR Oacute
ENCODING 211
SWIDTH 869 0
DWIDTH 10 0
BBX 9 12 1 0
BITMAP
0600
0800
0000
1E00
2100
4080
8080
8080
8080
8100
4200
3C00
ENDCHAR

STARTCHAR Ocircumflex
ENCODING 212
SWIDTH 869 0
DWIDTH 10 0
BBX 9 12 1 0
BITMAP
0C00
1200
0000
1E00
2100
4080
8080
8080
8080
8100
4200
3C00
ENDCHAR

STARTCHAR Otilde
ENCODING 213
SWIDTH 869 0
DWIDTH 10 0
BBX 9 11 1 0
BITMAP
0E00
0000
1E00
2100
4080
8080
8080
8080
8100
4200
3C00
ENDCHAR

STARTCHAR Odieresis
ENCODING 214
SWIDTH 869 0
DWIDTH 10 0
BBX 9 12 1 0
BITMAP
0A00
0A00
0000
1E00
2100
4080
8080
8080
8080
8100
4200
3C00
ENDCHAR

STARTCHAR multiply
ENCODING 215
SWIDTH 606 0
DWIDTH 7 0
BBX 6 5 1 1
BITMAP
44
28
30
50
88
ENDCHAR

STARTCHAR Oslash
ENCODING 216
SWIDTH 868 0
DWIDTH 10 0
BBX 10 11 1 -1
BITMAP
0040
1E80
2100
4280
8480
8880
9080
A100
4200
FC00
8000
ENDCHAR

STARTCHAR Ugrave
ENCODING 217
SWIDTH 655 0
DWIDTH 8 0
BBX 7 12 1 0
BITMAP
10
0C
00
42
42
42
82
84
84
84
88
70
ENDCHAR

STARTCHAR Uacute
ENCODING 218
SWIDTH 655 0
DWIDTH 8 0
BBX 7 12 1 0
BITMAP
0C
18
00
42
42
42
82
84
84
84
88
70
ENDCHAR

STARTCHAR Ucircumflex
ENCODING 219
SWIDTH 655 0
DWIDTH 8 0
BBX 7 12 1 0
BITMAP
18
34
00
42
42
42
82
84
84
84
88
70
ENDCHAR

STARTCHAR Udieresis
ENCODING 220
SWIDTH 655 0
DWIDTH 8 0
BBX 7 12 1 0
BITMAP
14
14
00
42
42
42
82
84
84
84
88
70
ENDCHAR

STARTCHAR Yacute
ENCODING 221
SWIDTH 592 0
DWIDTH 7 0
BBX 7 13 2 -1
BITMAP
18
20
00
82
84
48
48
50
20
20
20
40
40
ENDCHAR

STARTCHAR Thorn
ENCODING 222
SWIDTH 592 0
DWIDTH 7 0
BBX 7 9 1 0
BITMAP
20
7C
42
42
44
78
80
80
80
ENDCHAR

STARTCHAR germandbls
ENCODING 223
SWIDTH 554 0
DWIDTH 7 0
BBX 6 9 1 0
BITMAP
18
24
44
44
58
44
44
C4
B8
ENDCHAR

STARTCHAR agrave
ENCODING 224
SWIDTH 683 0
DWIDTH 8 0
BBX 8 9 1 0
BITMAP
10
0C
00
3D
42
82
82
86
7A
ENDCHAR

STARTCHAR aacute
ENCODING 225
SWIDTH 683 0
DWIDTH 8 0
BBX 8 9 1 0
BITMAP
0C
10
00
3D
42
82
82
86
7A
ENDCHAR

STARTCHAR acircumflex
ENCODING 226
SWIDTH 683 0
DWIDTH 8 0
BBX 8 9 1 0
BITMAP
18
24
00
3D
42
82
82
86
7A
ENDCHAR

STARTCHAR atilde
ENCODING 227
SWIDTH 683 0
DWIDTH 8 0
BBX 8 8 1 0
BITMAP
1C
00
3D
42
82
82
86
7A
ENDCHAR

STARTCHAR adieresis
ENCODING 228
SWIDTH 683 0
DWIDTH 8 0
BBX 8 9 1 0
BITMAP
14
14
00
3D
42
82
82
86
7A
ENDCHAR

STARTCHAR aring
ENCODING 229
SWIDTH 683 0
DWIDTH 8 0
BBX 8 10 1 0
BITMAP
0C
14
18
00
3D
42
82
82
86
7A
ENDCHAR

STARTCHAR ae
ENCODING 230
SWIDTH 1157 0
DWIDTH 14 0
BBX 13 6 1 0
BITMAP
3EF0
4308
83F8
8200
8718
7AE0
ENDCHAR

STARTCHAR ccedilla
ENCODING 231
SWIDTH 647 0
DWIDTH 8 0
BBX 7 8 1 -2
BITMAP
3C
42
80
80
86
78
20
60
ENDCHAR

STARTCHAR egrave
ENCODING 232
SWIDTH 650 0
DWIDTH 8 0
BBX 7 9 1 0
BITMAP
10
0C
00
3C
42
FE
80
86
78
ENDCHAR

STARTCHAR eacute
ENCODING 233
SWIDTH 650 0
DWIDTH 8 0
BBX 7 9 1 0
BITMAP
0C
10
00
3C
42
FE
80
86
78
ENDCHAR

STARTCHAR ecircumflex
ENCODING 234
SWIDTH 650 0
DWIDTH 8 0
BBX 7 9 1 0
BITMAP
18
24
00
3C
42
FE
80
86
78
ENDCHAR

STARTCHAR edieresis
ENCODING 235
SWIDTH 650 0
DWIDTH 8 0
BBX 7 9 1 0
BITMAP
14
14
00
3C
42
FE
80
86
78
ENDCHAR

STARTCHAR igrave
ENCODING 236
SWIDTH 200 0
DWIDTH 2 0
BBX 4 9 1 0
BITMAP
40
30
00
40
40
40
80
80
80
ENDCHAR

STARTCHAR iacute
ENCODING 237
SWIDTH 200 0
DWIDTH 2 0
BBX 4 9 1 0
BITMAP
30
60
00
40
40
40
80
80
80
ENDCHAR

STARTCHAR icircumflex
ENCODING 238
SWIDTH 200 0
DWIDTH 2 0
BBX 4 9 1 0
BITMAP
60
D0
00
40
40
40
80
80
80
ENDCHAR

STARTCHAR idieresis
ENCODING 239
SWIDTH 200 0
DWIDTH 2 0
BBX 4 9 1 0
BITMAP
50
50
00
40
40
40
80
80
80
ENDCHAR

STARTCHAR eth
ENCODING 240
SWIDTH 655 0
DWIDTH 8 0
BBX 7 9 1 0
BITMAP
14
08
14
3C
42
82
82
84
78
ENDCHAR

STARTCHAR ntilde
ENCODING 241
SWIDTH 610 0
DWIDTH 7 0
BBX 7 8 1 0
BITMAP
1C
00
5C
62
42
84
84
84
ENDCHAR

STARTCHAR ograve
ENCODING 242
SWIDTH 655 0
DWIDTH 8 0
BBX 7 9 1 0
BITMAP
10
0C
00
3C
42
82
82
84
78
ENDCHAR

STARTCHAR oacute
ENCODING 243
SWIDTH 655 0
DWIDTH 8 0
BBX 7 9 1 0
BITMAP
0C
18
00
3C
42
82
82
84
78
ENDCHAR

STARTCHAR ocircumflex
ENCODING 244
SWIDTH 655 0
DWIDTH 8 0
BBX 7 9 1 0
BITMAP
18
34
00
3C
42
82
82
84
78
ENDCHAR

STARTCHAR otilde
ENCODING 245
SWIDTH 655 0
DWIDTH 8 0
BBX 7 8 1 0
BITMAP
1C
00
3C
42
82
82
84
78
ENDCHAR

STARTCHAR odieresis
ENCODING 246
SWIDTH 655 0
DWIDTH 8 0
BBX 7 9 1 0
BITMAP
14
14
00
3C
42
82
82
84
78
ENDCHAR

STARTCHAR divide
ENCODING 247
SWIDTH 606 0
DWIDTH 7 0
BBX 6 5 1 1
BITMAP
20
00
FC
00
20
ENDCHAR

STARTCHAR oslash
ENCODING 248
SWIDTH 653 0
DWIDTH 8 0
BBX 7 7 1 0
BITMAP
02
3C
4A
92
A2
44
B8
ENDCHAR

STARTCHAR ugrave
ENCODING 249
SWIDTH 608 0
DWIDTH 7 0
BBX 7 9 1 0
BITMAP
10
0C
00
42
84
84
84
8C
74
ENDCHAR

STARTCHAR uacute
ENCODING 250
SWIDTH 608 0
DWIDTH 7 0
BBX 7 9 1 0
BITMAP
0C
10
00
42
84
84
84
8C
74
ENDCHAR

STARTCHAR ucircumflex
ENCODING 251
SWIDTH 608 0
DWIDTH 7 0
BBX 7 9 1 0
BITMAP
18
24
00
42
84
84
84
8C
74
ENDCHAR

STARTCHAR udieresis
ENCODING 252
SWIDTH 608 0
DWIDTH 7 0
BBX 7 9 1 0
BITMAP
14
14
00
42
84
84
84
8C
74
ENDCHAR

STARTCHAR yacute
ENCODING 253
SWIDTH 536 0
DWIDTH 6 0
BBX 6 11 1 -2
BITMAP
18
20
00
84
88
50
50
20
20
40
80
ENDCHAR

STARTCHAR thorn
ENCODING 254
SWIDTH 682 0
DWIDTH 8 0
BBX 8 11 0 -2
BITMAP
20
20
20
5E
61
41
41
42
BC
80
80
ENDCHAR

STARTCHAR ydieresis
ENCODING 255
SWIDTH 536 0
DWIDTH 6 0
BBX 6 11 1 -2
BITMAP
28
28
00
84
88
50
50
20
20
40
80
ENDCHAR
ENDFONT
